<?xml version="1.0" encoding="UTF-8" standalone="no"?>
<!-- Generator: Adobe Illustrator 16.0.0, SVG Export Plug-In . SVG Version: 6.00 Build 0)  -->

<svg
   xmlns:dc="http://purl.org/dc/elements/1.1/"
   xmlns:cc="http://creativecommons.org/ns#"
   xmlns:rdf="http://www.w3.org/1999/02/22-rdf-syntax-ns#"
   xmlns:svg="http://www.w3.org/2000/svg"
   xmlns="http://www.w3.org/2000/svg"
   xmlns:sodipodi="http://sodipodi.sourceforge.net/DTD/sodipodi-0.dtd"
   xmlns:inkscape="http://www.inkscape.org/namespaces/inkscape"
   version="1.1"
   x="0px"
   y="0px"
   width="62"
   height="96.699997"
   viewBox="0 0 62 96.699997"
   enable-background="new 0 0 312 100"
   xml:space="preserve"
   id="svg2"
   inkscape:version="0.91 r13725"
   sodipodi:docname="HKUST_Logo_new.svg"><metadata
     id="metadata136"><rdf:RDF><cc:Work
         rdf:about=""><dc:format>image/svg+xml</dc:format><dc:type
           rdf:resource="http://purl.org/dc/dcmitype/StillImage" /><dc:title></dc:title></cc:Work></rdf:RDF></metadata><defs
     id="defs134" /><sodipodi:namedview
     pagecolor="#ffffff"
     bordercolor="#666666"
     borderopacity="1"
     objecttolerance="10"
     gridtolerance="10"
     guidetolerance="10"
     inkscape:pageopacity="0"
     inkscape:pageshadow="2"
     inkscape:window-width="1920"
     inkscape:window-height="1031"
     id="namedview132"
     showgrid="false"
     inkscape:zoom="1.1826923"
     inkscape:cx="2.9593486"
     inkscape:cy="50"
     inkscape:window-x="0"
     inkscape:window-y="27"
     inkscape:window-maximized="1"
     inkscape:current-layer="svg2" /><g
     id="g4"
     transform="translate(-1.773,-0.997)"><path
       d="m 46.056,20.817 c 0.457,-0.571 0.617,-1.592 0.617,-1.592 l -27.415,0 c 0,0 0.339,1.131 0.625,1.592 l 26.173,0 z"
       id="path6"
       inkscape:connector-curvature="0"
       style="fill:#a78337" /><path
       d="m 44.463,23.143 c 0.51,-0.454 1.029,-1.363 1.029,-1.363 l -25.103,0 c 0,0 0.282,0.682 0.911,1.363 l 23.163,0 z"
       id="path8"
       inkscape:connector-curvature="0"
       style="fill:#a78337" /><path
       d="m 42.483,25.247 c 0.621,-0.339 1.131,-1.025 1.131,-1.025 l -21.461,0 c 0,0 0.511,0.571 1.016,1.025 l 19.314,0 z"
       id="path10"
       inkscape:connector-curvature="0"
       style="fill:#a78337" /><path
       d="m 39.977,27.234 c 0.621,-0.233 1.307,-0.799 1.307,-0.799 l -16.742,0 c 0,0 0,0.123 1.188,0.799 l 14.247,0 z"
       id="path12"
       inkscape:connector-curvature="0"
       style="fill:#a78337" /><path
       d="m 27.656,28.479 c 0,0 1.763,1.03 5.225,1.03 3.466,0 5.674,-1.03 5.674,-1.03 l -10.899,0 z"
       id="path14"
       inkscape:connector-curvature="0"
       style="fill:#a78337" /><path
       d="m 27.374,30.81 c 0,0 2.103,0.11 3.344,1.075 1.196,1.027 2.106,2.726 2.106,2.726 0,0 0.739,-1.637 1.935,-2.493 1.188,-0.916 3.123,-1.308 3.123,-1.308 l 21.633,0 4.258,6.303 -19.424,0 c 0,0 -1.36,0.055 -3.405,1.255 -1.082,0.615 -1.882,1.696 -1.882,1.696 0,0 -0.159,0.512 -0.392,0.79 -0.229,0.29 -0.4,0.521 -0.677,0.627 -0.29,0.123 -0.229,0.055 -0.229,0.055 l -10.108,0 c 0,0 -0.409,-0.161 -0.621,-0.51 -0.229,-0.339 -0.061,-0.222 -0.285,-0.5 -0.171,-0.282 -0.572,-1.028 -2.103,-2.048 -1.588,-1.033 -3.124,-1.136 -3.124,-1.136 l -19.75,0 4.303,-6.532 21.298,0 z"
       id="path16"
       inkscape:connector-curvature="0"
       style="fill:#003974" /><path
       d="m 12.094,39.722 0,32.248 c 0,0 0.115,2.85 2.502,6.704 2.384,3.861 5.842,5.625 5.842,5.625 l 2.73,-4.258 c 0,0 -2.379,-1.425 -4.2,-4.152 -1.755,-2.718 -1.755,-5.054 -1.755,-5.054 l 0,-31.113 -5.119,0 z"
       id="path18"
       inkscape:connector-curvature="0"
       style="fill:#003974" /><path
       d="m 48.664,39.611 0,31.109 c 0,0 -0.396,3.127 -1.874,5.34 -1.478,2.271 -3.923,4.09 -3.923,4.09 l 2.625,4.198 c 0,0 3.968,-2.891 5.895,-5.961 1.935,-3.062 2.396,-7.667 2.396,-7.667 l 0,-31.109 -5.119,0 z"
       id="path20"
       inkscape:connector-curvature="0"
       style="fill:#003974" /><path
       d="m 3.986,39.722 0,32.367 c 0,0 0.335,5.001 3.454,10.222 3.135,5.217 8.802,8.855 8.802,8.855 l 2.674,-4.255 c 0,0 -3.637,-1.931 -6.528,-6.368 C 9.424,76.061 9.265,71.97 9.265,71.97 l 0,-32.248 -5.279,0 z"
       id="path22"
       inkscape:connector-curvature="0"
       style="fill:#003974" /><path
       d="m 27.374,43.128 0,34.183 c 0,0 -0.126,0.117 -0.167,0.62 -0.061,0.518 -0.4,0.861 -0.4,0.861 l -11.41,18.905 34.978,0 -11.418,-19.31 -0.338,-0.857 -0.115,-0.902 0,-33.439 -4.258,0 0,34.7 c 0,0 0,0.499 0.171,0.903 0.106,0.399 0.343,1.017 0.343,1.017 l 7.034,11.581 -17.829,0 6.924,-11.524 c 0,0 0.229,-0.396 0.4,-0.964 0.118,-0.514 0.167,-1.013 0.167,-1.013 l 0,-34.761 -4.082,0 z"
       id="path24"
       inkscape:connector-curvature="0"
       style="fill:#a78337" /><path
       d="m 56.556,39.611 0,31.799 c 0,0 -0.049,4.087 -3.062,8.799 -3.008,4.718 -6.475,6.702 -6.475,6.702 l 2.56,4.312 c 0,0 5.217,-3.294 8.516,-8.516 3.237,-5.226 3.633,-11.297 3.633,-11.297 l 0,-31.799 -5.172,0 z"
       id="path26"
       inkscape:connector-curvature="0"
       style="fill:#003974" /><path
       d="m 19.083,18.315 c 0,0 -1.755,-9.59 5.283,-14.367 0,0 3.18,-2.948 8.34,-2.948 5.515,0 8.688,2.892 8.688,2.892 7.667,5.616 5.397,14.423 5.397,14.423 l -27.708,0 z"
       id="path28"
       inkscape:connector-curvature="0"
       style="fill:#a78337" /></g></svg>